# xmcd
#
# Track frame offsets:
#	150
#	20769
#	37293
#	53039
#	70163
#	92784
#	111976
#	129789
#	149050
#	169665
#	186191
#	201957
#	219011
#	241621
#	260804
#	278639
#
# Disc length: 3972 seconds
#
# Revision: 1
# Processed by: cddbd v1.5.1PL2 Copyright (c) Steve Scherf et al.
# Submitted via: audiograbber 1.83.01
#
DISCID=ef0f8210
DTITLE=Sound Choice - sc3387
DYEAR=1900
DGENRE=Karaoke Country
TTITLE0=Judds - Flies On The Butter (You Can't Go Home Again)
TTITLE1=Jewell, Buddy - Sweet Southern Comfort
TTITLE2=McBride, Martina - In My Daughter's Eyes
TTITLE3=Adkins, Trace - Hot Mama
TTITLE4=Gill, Vince - Young Man's Town
TTITLE5=Smith, Mindy - Jolene (Radio)
TTITLE6=Crow, Sheryl - First Cut Is The Deepest
TTITLE7=Kid Rock and Chesney, Kenny - Luckenbach Texas
TTITLE8=Judds - Flies On The Butter (You Can't Go Home Again) (Vocal)
TTITLE9=Jewell, Buddy - Sweet Southern Comfort (Vocal)
TTITLE10=McBride, Martina - In My Daughter's Eyes (Vocal)
TTITLE11=Adkins, Trace - Hot Mama (Vocal)
TTITLE12=Gill, Vince - Young Man's Town (Vocal)
TTITLE13=Smith, Mindy - Jolene (Radio) (Vocal)
TTITLE14=Crow, Sheryl - First Cut Is The Deepest (Vocal)
TTITLE15=Kid Rock and Chesney, Kenny - Luckenbach Texas (Vocal)
EXTD=
EXTT0=
EXTT1=
EXTT2=
EXTT3=
EXTT4=
EXTT5=
EXTT6=
EXTT7=
EXTT8=
EXTT9=
EXTT10=
EXTT11=
EXTT12=
EXTT13=
EXTT14=
EXTT15=
PLAYORDER=
